<svg id="Layer_1" data-name="Layer 1" xmlns="http://www.w3.org/2000/svg" viewBox="0 0 544.31 160.04"><defs><style>.cls-1,.cls-2{fill:#fff;}.cls-1{stroke:#fff;stroke-miterlimit:10;stroke-width:7px;}</style></defs><title>ELogoDark</title><path class="cls-1" d="M514.54,116.21c-7.08,1.81-11.55,8.78-10,15.54s8.86,11,16.09,9.24a13.17,13.17,0,0,0,10-15.77C528.91,118.25,521.94,114.31,514.54,116.21ZM519,134.12a5.9,5.9,0,0,1-7.17-3.93,6,6,0,0,1,4.53-7.17h0a5.63,5.63,0,0,1,7,3.75,1.33,1.33,0,0,0,.05.19,5.81,5.81,0,0,1-4.14,7.09l-.33.08Z" transform="translate(-3.19 -4.24)"/><path class="cls-2" d="M508.36,27.7l-.24,2.24c-.34,3.2-.67,6.34-1,9.47-.3,2.86-.61,5.72-.91,8.59-1,9.65-2.08,19.64-3,29.43a3.75,3.75,0,0,1-.1.59,3.82,3.82,0,0,1-1.35.5c-10.46,2.65-21.07,5.39-31.34,8-9.13,2.35-18.54,4.78-27.86,7.15a15.72,15.72,0,0,0,1.2-7.59,14,14,0,0,0-1.71-5.32,14.08,14.08,0,0,1-1.68-5.3l0-.24A10.82,10.82,0,0,0,437.88,69a8.79,8.79,0,0,0-2.44-1.89,7.37,7.37,0,0,1-.92-.57,8.25,8.25,0,0,1-2.7-3.85l-.1-.25-.13-.22a109.47,109.47,0,0,0-7.07-10.41c-.56-.73-1.13-1.46-1.72-2.18L508.36,27.7m3.44-4L420.87,47l-3.45.89c1.55,1.75,3.14,3.66,4.72,5.72A104.1,104.1,0,0,1,429,63.76,11,11,0,0,0,432.75,69c1.19.86,2,1,2.89,2a8.18,8.18,0,0,1,1.77,4.86c.71,5.8,3,6.56,3.38,10.57.22,2.19,0,6.39-4.64,12,1-.26,2.42-.64,4.22-1.1,20.73-5.25,41.41-10.69,62.14-15.93,2.53-.64,3.49-1.53,3.7-3.71,1.18-12.64,2.57-25.32,3.9-38,.54-5.23,1.11-10.48,1.69-16Z" transform="translate(-3.19 -4.24)"/><path class="cls-2" d="M547.5,160.51l-214.38,3.4h0l-6.54.1v-5.24h.7a37.78,37.78,0,0,0,11.05-1.58l12.09.19Z" transform="translate(-3.19 -4.24)"/><path class="cls-2" d="M530.08,103.32c-.31-1.1-2.33-1.91-3.78-2.34-.91-.27-2.16.39-3.24.66l-82,20.06c-1.21.3-2.63,1-3.6.7-2.15-.75-5-1.61-5.83-3.26s0-4.55,1.06-6.43c.7-1.2,3-2,4.75-2.41q36.81-9.1,73.67-18.07c5.36-1.31,6-2,6.64-7.25q4.2-32.4,8.38-64.81c1.28-9.91-.34-11.32-10.48-8.84q-54.6,13.35-109.17,26.76l-9.13,2.24c-3.26.81-5.09.61-6.73-2.48-.32-.61-.65-1.21-1-1.81-2.6-4.67-5.55-9.1-8.47-13.53s-6.26-5.65-11.6-4.37c-5.93,1.44-11.85,2.94-17.79,4.34-2.61.61-4.66,1.8-4,4.6s3,3,5.58,2.32c4.94-1.27,10-2.17,14.85-3.74,4.11-1.33,6.38-.24,8.36,3.19,1.59,2.76,3.24,5.48,4.9,8.19q1.54,2.51,3.11,5a42.23,42.23,0,0,1,7.29-.54,41.47,41.47,0,0,1,17,3.37L416.74,43,519,18c-.83,6.53-1.64,12.73-2.43,18.94-1.91,15-3.88,30-5.66,45-.3,2.56-1.31,3.57-3.9,4.19Q472.39,94.39,437.94,103l-2.79.69c-1.9.47-3.09.34-4.11-.62a68.15,68.15,0,0,1-5.85,6.46,2.09,2.09,0,0,1-.19,1,15.23,15.23,0,0,0-1.62,8,11.9,11.9,0,0,0,3.29,6.91c4,4.38,9.3,4.94,15.22,3.43,13.52-3.44,27.09-6.67,40.64-10L525,108.42c1.09-.27,2.55-.29,3.15-1C529.14,106.27,530.39,104.42,530.08,103.32Z" transform="translate(-3.19 -4.24)"/><path class="cls-2" d="M445.37,133.79c-7.26,1.89-11.76,9-10,15.85,1.69,6.62,8.95,10.69,16,9a13.21,13.21,0,0,0,10.1-15.72v0C459.78,135.87,452.72,131.89,445.37,133.79Zm4.22,18a6,6,0,0,1-7.06-4.15,6.1,6.1,0,0,1,4.8-7.06,5.7,5.7,0,0,1,7,4l0,.13a5.89,5.89,0,0,1-4.55,7l-.19,0Z" transform="translate(-3.19 -4.24)"/><path class="cls-2" d="M514.25,117c-7.08,1.81-11.56,8.78-10,15.54s8.87,11,16.09,9.24a13.17,13.17,0,0,0,10-15.77C528.61,119,521.65,115.05,514.25,117Zm4.44,17.92a5.89,5.89,0,0,1-7.17-3.94,6,6,0,0,1,4.53-7.17h0a5.61,5.61,0,0,1,7,3.76,2.17,2.17,0,0,1,.07.24,5.81,5.81,0,0,1-4.2,7.06Z" transform="translate(-3.19 -4.24)"/><path class="cls-2" d="M56.12,49.05c.18.31.35.63.5,1a13.36,13.36,0,0,1,2.12-.84C58,49.1,57.08,49.06,56.12,49.05Z" transform="translate(-3.19 -4.24)"/><path class="cls-2" d="M58.74,49.17a13.36,13.36,0,0,0-2.12.84c-.15-.33-.32-.65-.5-1C57.08,49.06,58,49.1,58.74,49.17Z" transform="translate(-3.19 -4.24)"/><path class="cls-2" d="M58.12,124.89A37.63,37.63,0,0,1,37.67,131H37.4c-12.62,0-20.41-5.18-24.72-9.51A32.74,32.74,0,0,1,3.2,97.76,37.8,37.8,0,0,1,13.37,72.39a46.29,46.29,0,0,1,3.91-3.88c.56.63,1.16,1.25,1.79,1.83a29.78,29.78,0,0,0,2.25,2,45,45,0,0,0-3.92,3.88c-6.75,7.61-8.65,15.41-8.7,21.67a27.2,27.2,0,0,0,7.87,19.8c3.59,3.59,10.11,7.87,20.86,7.89h.24a31.09,31.09,0,0,0,5.11-.42,31.89,31.89,0,0,0,7.64-2.29A38,38,0,0,0,58.12,124.89Z" transform="translate(-3.19 -4.24)"/><path class="cls-2" d="M95,50.42a17.14,17.14,0,0,1-1.66,5.42c0-.05,0-.1,0-.15A14.24,14.24,0,0,1,95,50.42Z" transform="translate(-3.19 -4.24)"/><path class="cls-2" d="M58.74,49.17a13.36,13.36,0,0,0-2.12.84c-.15-.33-.32-.65-.5-1C57.08,49.06,58,49.1,58.74,49.17Z" transform="translate(-3.19 -4.24)"/><path class="cls-2" d="M95,50.42a17.14,17.14,0,0,1-1.66,5.42c0-.05,0-.1,0-.15A14.24,14.24,0,0,1,95,50.42Z" transform="translate(-3.19 -4.24)"/><path class="cls-2" d="M102.79,121.4a47.94,47.94,0,0,1-5.17,3.23,56.41,56.41,0,0,1-27.4,6.63h-.09c-7.82,0-14.25-.82-19.59-2.55a32.74,32.74,0,0,1-7.76-3.59,31.89,31.89,0,0,0,7.64-2.29,38,38,0,0,0,7.7,2.06,72.89,72.89,0,0,0,12,.87h.09a51.66,51.66,0,0,0,22.83-5,44.15,44.15,0,0,0,5-2.82A27.28,27.28,0,0,0,102.79,121.4Z" transform="translate(-3.19 -4.24)"/><path class="cls-2" d="M114.54,41.5h-.61A33.31,33.31,0,0,0,109,42a33.63,33.63,0,0,0-1.43-5.34,34.48,34.48,0,0,0-5.3-9.68l-.15-.19a41.51,41.51,0,0,0-10-8.92l-.37-.22a49.73,49.73,0,0,0-14.64-5.83A76.22,76.22,0,0,0,59,9.79c-13.54,0-24.9,3.36-33.76,10C15.2,27.23,9.88,37.43,9.88,49.25a28.87,28.87,0,0,0,7.4,19.26c.56.63,1.16,1.25,1.79,1.83a29.78,29.78,0,0,0,2.25,2,45,45,0,0,0-3.92,3.88c-.77-.61-1.47-1.24-2.1-1.84s-1.32-1.27-1.93-2a34.35,34.35,0,0,1-9-23.14c0-13.43,6.25-25.48,17.59-33.92,9.83-7.3,22.28-11,37-11A82.44,82.44,0,0,1,78.41,6.43a55.4,55.4,0,0,1,16.24,6.46l.5.32a46.46,46.46,0,0,1,11.29,10.1l.2.25A39.94,39.94,0,0,1,113.2,36,39.19,39.19,0,0,1,114.54,41.5Z" transform="translate(-3.19 -4.24)"/><path class="cls-2" d="M95,50.42a17.14,17.14,0,0,1-1.66,5.42c0-.05,0-.1,0-.15A14.24,14.24,0,0,1,95,50.42Z" transform="translate(-3.19 -4.24)"/><path class="cls-2" d="M109,42a33.63,33.63,0,0,0-1.43-5.34A37.31,37.31,0,0,1,113.2,36c.21,0,.41,0,.62,0a53.93,53.93,0,0,1,7.2.36c.58.07,1.16.17,1.73.29a24.85,24.85,0,0,1,8.54,3.53c.79-.44,1.6-.85,2.44-1.22a34.71,34.71,0,0,1,14.34-3,31.85,31.85,0,0,1,11.37,1.73A39.3,39.3,0,0,1,170.11,36a52.17,52.17,0,0,1,7.18.36c.57.07,1.13.16,1.68.28a24.82,24.82,0,0,1,8.69,3.61,26.39,26.39,0,0,1,4-1.76A35.35,35.35,0,0,1,202.78,36c.28,0,.57,0,.86,0a43.51,43.51,0,0,1,6.75.46,41.09,41.09,0,0,1,5.37,1.16A35.23,35.23,0,0,0,214.42,43a36.76,36.76,0,0,0-10.71-1.45l-.63,0a30,30,0,0,0-9.54,2.12A22.06,22.06,0,0,0,187.35,47a19.59,19.59,0,0,0-9.49-5c-.4-.08-.81-.15-1.22-.2a47.44,47.44,0,0,0-6.42-.32,34.41,34.41,0,0,0-10.91,2,26.72,26.72,0,0,0-11.17-2.06A29,29,0,0,0,136,44a21,21,0,0,0-4.9,3A19.6,19.6,0,0,0,121.62,42c-.41-.09-.83-.16-1.25-.21a47.15,47.15,0,0,0-5.83-.33h-.61A33.31,33.31,0,0,0,109,42Z" transform="translate(-3.19 -4.24)"/><path class="cls-2" d="M239.22,125.47a33,33,0,0,1-2.79,5.27,60.73,60.73,0,0,1-4.37,5.9,20,20,0,0,1-16.33,7.2,46.49,46.49,0,0,1-4.11,6.16c-5.1,6.49-14.58,14.22-30.82,14.28h-.58a36.7,36.7,0,0,1-23.61-8.59c-5.12-4.3-11.18-12-11.75-24.76a36.13,36.13,0,0,1-9.93-2.44,38.74,38.74,0,0,1-15,2.66c-10.17-.05-17.41-3.15-22.29-6.52a33.07,33.07,0,0,1-3.56-2.85q-.53-.48-1-1a44.15,44.15,0,0,0,5-2.82,27.28,27.28,0,0,0,4.73,3.43,34,34,0,0,0,17.2,4.25,33.56,33.56,0,0,0,15-3.18,31.39,31.39,0,0,0,14.22,3.18l1.24,0c-.11,1.1-.17,2.21-.17,3.33,0,11.79,5.35,18.75,9.83,22.51a31.18,31.18,0,0,0,20.07,7.31h.52c14.07-.05,22.21-6.64,26.56-12.18a42.63,42.63,0,0,0,5.33-8.81l.22.06a14.53,14.53,0,0,0,15-4.73q1.56-1.87,2.75-3.55a32.17,32.17,0,0,0,3-4.9A33.69,33.69,0,0,0,239.22,125.47Z" transform="translate(-3.19 -4.24)"/><path class="cls-2" d="M298,120.4a30.87,30.87,0,0,0-1.06,6.55,49.63,49.63,0,0,1-5.57,2,60.36,60.36,0,0,1-17,2.34h-.09c-7.84,0-14.28-.83-19.63-2.57a32.8,32.8,0,0,1-7.74-3.59,31.88,31.88,0,0,0,7.6-2.28,38.64,38.64,0,0,0,7.7,2.06,73.49,73.49,0,0,0,12.06.88h.09A53.92,53.92,0,0,0,291.84,123,44.54,44.54,0,0,0,298,120.4Z" transform="translate(-3.19 -4.24)"/><path class="cls-2" d="M318.53,41.48h-1.78a33.62,33.62,0,0,0-3.76.29,32,32,0,0,0-1.47-5.36,34.57,34.57,0,0,0-5.23-9.47l-.14-.18a41.37,41.37,0,0,0-10-8.92l-.36-.22A49.48,49.48,0,0,0,281.2,11.8a76.35,76.35,0,0,0-18.13-2.06c-13.56,0-24.93,3.36-33.79,10a37.31,37.31,0,0,0-13.52,17.93A35.23,35.23,0,0,0,214.42,43a36.62,36.62,0,0,0-5.37-1.13,38.54,38.54,0,0,1,1.34-5.36A42.91,42.91,0,0,1,226,15.28c9.83-7.31,22.3-11,37.05-11a81.67,81.67,0,0,1,19.4,2.2,55.14,55.14,0,0,1,16.2,6.45l.5.32a46.64,46.64,0,0,1,11.29,10.1l.2.24A40,40,0,0,1,317.18,36,37.22,37.22,0,0,1,318.53,41.48Z" transform="translate(-3.19 -4.24)"/><path class="cls-2" d="M262.21,124.88a37.74,37.74,0,0,1-7.56,3.81A36.85,36.85,0,0,1,241.73,131h-.27a42.12,42.12,0,0,1-5-.3,36.25,36.25,0,0,1-5.85-1.17,32.17,32.17,0,0,0,3-4.9,33.69,33.69,0,0,0,5.66.8c.74,0,1.49.07,2.27.07h.24a30.87,30.87,0,0,0,5.18-.44,31.88,31.88,0,0,0,7.6-2.28A38.64,38.64,0,0,0,262.21,124.88Z" transform="translate(-3.19 -4.24)"/><path class="cls-2" d="M310.55,57.23q-.37,3.1-.74,6.08a32.33,32.33,0,0,0,2.67-6.69A16.61,16.61,0,0,0,310.55,57.23Z" transform="translate(-3.19 -4.24)"/><path class="cls-2" d="M309.81,63.31c-.05.43-.11.85-.15,1.27l-.36-.36Z" transform="translate(-3.19 -4.24)"/><path class="cls-2" d="M312.48,56.62a32.33,32.33,0,0,1-2.67,6.69q.36-3,.74-6.08A16.61,16.61,0,0,1,312.48,56.62Z" transform="translate(-3.19 -4.24)"/><path class="cls-2" d="M313,41.77a32,32,0,0,0-1.47-5.36,39.73,39.73,0,0,1,5.12-.43h.54a54.35,54.35,0,0,1,6.63.37c.57.07,1.13.16,1.69.28a25,25,0,0,1,8.7,3.62,26.37,26.37,0,0,1,3.91-1.73A35.09,35.09,0,0,1,349.28,36l.84,0a42.55,42.55,0,0,1,12.44,1.7,20,20,0,0,1,10.78,7.74,41.92,41.92,0,0,0-4.89,2.64,14.2,14.2,0,0,0-4.31-3.76A14.55,14.55,0,0,0,361,43a36.66,36.66,0,0,0-10.82-1.48l-.61,0A29.71,29.71,0,0,0,340,43.66,21.68,21.68,0,0,0,333.88,47a19.59,19.59,0,0,0-9.5-5c-.4-.08-.81-.15-1.22-.2-1.54-.18-3.09-.29-4.63-.32h-1.78A33.62,33.62,0,0,0,313,41.77Z" transform="translate(-3.19 -4.24)"/><path class="cls-2" d="M385.66,125.73a34.64,34.64,0,0,1-2.92,5.37,63.6,63.6,0,0,1-4.13,5.52,20,20,0,0,1-16.34,7.22,46.49,46.49,0,0,1-4.11,6.16,36.72,36.72,0,0,1-7.77,7.39,37.83,37.83,0,0,1-17.27,6.52h0a46.2,46.2,0,0,1-5.79.37h-.5a36.67,36.67,0,0,1-23.68-8.66c-5.34-4.49-11.75-12.79-11.75-26.68v0a38,38,0,0,1,.47-5.93A44.54,44.54,0,0,0,298,120.4a30.87,30.87,0,0,0-1.06,6.55c-.05.66-.07,1.32-.07,2,0,11.77,5.34,18.73,9.79,22.48a31.15,31.15,0,0,0,19.89,7.35h.7a37.78,37.78,0,0,0,11.05-1.58,31,31,0,0,0,15.54-10.6,42.8,42.8,0,0,0,5.33-8.81l.22.06a14.47,14.47,0,0,0,15-4.74c.83-1,1.58-2,2.26-2.86a36.09,36.09,0,0,0,3.19-5A44.28,44.28,0,0,0,385.66,125.73Z" transform="translate(-3.19 -4.24)"/><path class="cls-2" d="M443.19,93.67c-.55,1.24-1.15,2.47-1.82,3.69a53.39,53.39,0,0,1-3.43,5.61,77,77,0,0,1-13.32,14.5l-.36.3-.88.7a59.15,59.15,0,0,1-16,9,57.09,57.09,0,0,1-20.48,3.78h-.08c-1.4,0-2.76-.05-4.07-.15a46.87,46.87,0,0,1-6.11-.85,36.09,36.09,0,0,0,3.19-5,44.28,44.28,0,0,0,5.84.5c.38,0,.77,0,1.16,0h.07a51.71,51.71,0,0,0,18.54-3.42,54,54,0,0,0,15.35-8.82l.26-.21q2.19-1.87,4.15-3.8A68.15,68.15,0,0,0,431,103q1.45-1.83,2.72-3.7a49.88,49.88,0,0,0,4.39-7.89,14.51,14.51,0,0,0-.64-13,41.25,41.25,0,0,0-6.94-9.09,14.52,14.52,0,0,0-4.82-3.15A26.52,26.52,0,0,0,415.37,48.7c-.42-.32-.85-.63-1.29-.92a32.36,32.36,0,0,0-5.18-2.91,41.47,41.47,0,0,0-17-3.37,42.23,42.23,0,0,0-7.29.54,43.11,43.11,0,0,0-11.24,3.41,41.92,41.92,0,0,0-4.89,2.64,14.2,14.2,0,0,0-4.31-3.76,47.76,47.76,0,0,1,5.26-3.07A48.61,48.61,0,0,1,381.47,37a46.54,46.54,0,0,1,8.17-1c.59,0,1.18,0,1.77,0h.49a49.25,49.25,0,0,1,14.58,2.09A38.28,38.28,0,0,1,416.74,43l.42.27a32.9,32.9,0,0,1,4.71,3.8,32.07,32.07,0,0,1,8.78,15.53,19.65,19.65,0,0,1,3.78,2.93,47,47,0,0,1,7.88,10.3A20,20,0,0,1,443.19,93.67Z" transform="translate(-3.19 -4.24)"/><path class="cls-2" d="M56.12,49.05c.18.31.35.63.5,1a13.36,13.36,0,0,1,2.12-.84C58,49.1,57.08,49.06,56.12,49.05Z" transform="translate(-3.19 -4.24)"/><path class="cls-2" d="M58.74,49.17a13.36,13.36,0,0,0-2.12.84c-.15-.33-.32-.65-.5-1C57.08,49.06,58,49.1,58.74,49.17Z" transform="translate(-3.19 -4.24)"/><path class="cls-2" d="M95,50.42a17.14,17.14,0,0,1-1.66,5.42c0-.05,0-.1,0-.15A14.24,14.24,0,0,1,95,50.42Z" transform="translate(-3.19 -4.24)"/><path class="cls-2" d="M93.33,55.69c0,.05,0,.1,0,.15A17.14,17.14,0,0,0,95,50.42,14.24,14.24,0,0,0,93.33,55.69Zm14.42,1.56c-.08.73-.16,1.49-.25,2.27.32-.81.6-1.64.84-2.48Z" transform="translate(-3.19 -4.24)"/><path class="cls-2" d="M232.92,36.11A19.29,19.29,0,0,0,232,40c-.15,1.1-.45,3.37-.88,6.82-.25,1.92-.54,4.19-.89,6.82a18.46,18.46,0,0,1,.26,2.88c-.18-.3-.35-.61-.51-.92a14.25,14.25,0,0,1-1.54-6.44c0-.36,0-.71,0-1.06A20.19,20.19,0,0,1,232.92,36.11Z" transform="translate(-3.19 -4.24)"/><path class="cls-2" d="M228.43,48.14c0,.35,0,.7,0,1.06a14.25,14.25,0,0,0,1.54,6.44c.16.31.33.62.51.92a18.46,18.46,0,0,0-.26-2.88c.35-2.63.64-4.9.89-6.82.43-3.45.73-5.72.88-6.82a19.29,19.29,0,0,1,1-3.93A20.19,20.19,0,0,0,228.43,48.14Z" transform="translate(-3.19 -4.24)"/><path class="cls-2" d="M310.55,57.23q-.37,3.1-.74,6.08a32.33,32.33,0,0,0,2.67-6.69A16.61,16.61,0,0,0,310.55,57.23Z" transform="translate(-3.19 -4.24)"/><path class="cls-2" d="M309.81,63.31c-.05.43-.11.85-.15,1.27l-.36-.36Z" transform="translate(-3.19 -4.24)"/><path class="cls-2" d="M312.48,56.62a32.33,32.33,0,0,1-2.67,6.69q.36-3,.74-6.08A16.61,16.61,0,0,1,312.48,56.62Z" transform="translate(-3.19 -4.24)"/><path class="cls-2" d="M63.94,40.35a25,25,0,0,0-5.45-.57,19.73,19.73,0,0,0-10.78,3q-.23,1.59-.85,6.58T45.12,62.42q-1,8.08-1.61,12.88Q23.2,84.72,23.2,98.1a12.56,12.56,0,0,0,3.64,9.31Q30.46,111,37.5,111a17.05,17.05,0,0,0,12.25-5q5.22-5.06,7-17.19ZM41.25,92c-.46,3-1.27,5.25-2.44,6.64s-2.29,2.1-3.35,2.1q-3.86,0-3.86-4.08,0-5.67,10.67-11.69Z" transform="translate(-3.19 -4.24)"/><path class="cls-2" d="M93.12,72.91a29.5,29.5,0,0,0-16.74-6.35,18.73,18.73,0,0,0,13.16-5.67,17.38,17.38,0,0,0,5.58-12.38,20.16,20.16,0,0,0-4.25-12.65,26.86,26.86,0,0,0-6.47-5.79A35.17,35.17,0,0,0,74,25.93,61.45,61.45,0,0,0,59.1,24.29q-15.66,0-25.19,7.09T24.38,49.25A14.31,14.31,0,0,0,29,59.8q4.65,4.55,13.28,4.88l1.24-8.4A12,12,0,0,1,37,53.73a6.5,6.5,0,0,1-2.53-5.22q0-6.36,7-10.16a29.93,29.93,0,0,1,14.41-3.8q11.24,0,17.7,4.65,6,4.42,5.85,10.9t-4.88,9.7A19.93,19.93,0,0,1,63,63l-1,8.4q9.87,0,15.6,4.42t5.73,10.9a13.51,13.51,0,0,1-4.21,10.39,15.25,15.25,0,0,1-10.83,3.91,24.7,24.7,0,0,1-11.63-2.61L53.12,108q4.53,3.3,17.08,3.29t21.27-6.35q8.73-6.36,8.74-17.7A17.6,17.6,0,0,0,93.12,72.91Z" transform="translate(-3.19 -4.24)"/><path class="cls-2" d="M297.22,72.91a29.5,29.5,0,0,0-16.74-6.35,18.73,18.73,0,0,0,13.16-5.67,17.35,17.35,0,0,0,5.48-12.38,20.11,20.11,0,0,0-4.26-12.65,26.86,26.86,0,0,0-6.47-5.79A35.17,35.17,0,0,0,278,25.93a61.75,61.75,0,0,0-14.83-1.69q-15.66,0-25.19,7.09T228.4,49.2a14.31,14.31,0,0,0,4.65,10.55q4.65,4.55,13.28,4.88l1.25-8.4A12,12,0,0,1,241,53.68a6.49,6.49,0,0,1-2.5-5.16q0-6.36,7-10.16a29.93,29.93,0,0,1,14.41-3.8q11.23,0,17.7,4.65,6,4.42,5.85,10.9t-4.88,9.7A19.89,19.89,0,0,1,267.12,63l-1,8.4q9.87,0,15.6,4.42t5.73,10.9a13.53,13.53,0,0,1-4.2,10.38,15.25,15.25,0,0,1-10.83,3.91,24.82,24.82,0,0,1-11.63-2.61L257.27,108q4.55,3.3,17.08,3.29t21.27-6.35q8.75-6.34,8.74-17.7A17.63,17.63,0,0,0,297.22,72.91Z" transform="translate(-3.19 -4.24)"/><path class="cls-2" d="M268,40.35a25,25,0,0,0-5.45-.57,19.73,19.73,0,0,0-10.78,3q-.22,1.59-.85,6.58t-1.7,13.11q-1.09,8-1.64,12.83-20.31,9.42-20.31,22.8a12.55,12.55,0,0,0,3.63,9.31q3.63,3.63,10.66,3.63a17.07,17.07,0,0,0,12.26-5q5.22-5.06,7-17.19ZM245.31,92c-.46,3-1.27,5.25-2.44,6.64s-2.29,2.1-3.35,2.1c-2.57,0-3.85-1.36-3.86-4.08q0-5.67,10.67-11.69Z" transform="translate(-3.19 -4.24)"/><path class="cls-2" d="M351.62,98.78,357,56.91a22.53,22.53,0,0,0-6.58-.9,15.22,15.22,0,0,0-5.27,1.25,7.26,7.26,0,0,0-4.26,3.4q-.9,6.91-2.27,19.35t-1.7,15q-3.51,5.22-9.08,5.22-6.12,0-6.12-6.7a23.25,23.25,0,0,1,.22-2.49l3.75-28.94a6,6,0,0,0-1.36-4.19,5,5,0,0,0-2.84-1.71A31.09,31.09,0,0,0,317,56a19.12,19.12,0,0,0-6.47,1.25q-1,8.28-1.93,15.65t-1.7,13.73a84.46,84.46,0,0,0-.8,9.53q0,6.81,4,10.56A17,17,0,0,0,320.68,111q-9.31,8.73-9.31,17.93,0,7.49,4.65,11.4a16.68,16.68,0,0,0,11.1,3.94q10.1,0,15.32-6.64t6.47-16.84l1.81-14.19q10.21,3.06,12.49,17.25c2.57-3.1,4-5.37,4.31-6.81Q364.9,101.17,351.62,98.78Zm-17.7,22.92c-.61,5-1.44,8.32-2.5,10a5.12,5.12,0,0,1-4.59,2.49,6.49,6.49,0,0,1-4.82-1.81c-1.21-1.21-1.81-3.07-1.82-5.56q.35-9.87,15.21-17.59Z" transform="translate(-3.19 -4.24)"/><path class="cls-2" d="M420.38,79.72a44.09,44.09,0,0,1-12.71,15.43q-7.83,5.91-16.34,5.9a13,13,0,0,1-9.7-4q-3.92-4-3.91-12.25a24.67,24.67,0,0,1,4-14.18q4-6,9.36-6A8,8,0,0,1,395.67,66c1.4.95,2.1,2.72,2.1,5.33s-1.15,5.32-3.46,8.11-5.81,4.69-10.49,5.68l1.58,6.69q12.15-2.14,19.12-7.6a17.19,17.19,0,0,0,7-14.18A12.2,12.2,0,0,0,406,59.8Q400.52,56,391.78,56a28.79,28.79,0,0,0-21,8.73q-8.79,8.74-8.79,20.43t7,19.17q6.58,6.93,17.93,6.92a37.45,37.45,0,0,0,13.44-2.49,39.4,39.4,0,0,0,11.29-6.47q9.54-8.17,13.28-16.68A26.59,26.59,0,0,0,420.38,79.72Z" transform="translate(-3.19 -4.24)"/><path class="cls-2" d="M205.12,98.78l5.34-41.87a22.53,22.53,0,0,0-6.58-.9,15.49,15.49,0,0,0-5.28,1.24,7.36,7.36,0,0,0-4.25,3.41q-.91,6.91-2.27,19.34t-1.71,15q-3.51,5.22-9.07,5.22-6.13,0-6.13-6.7A23.27,23.27,0,0,1,175.4,91l3.72-28.9a6,6,0,0,0-1.36-4.19,5,5,0,0,0-2.84-1.71A31.09,31.09,0,0,0,170.5,56,19.35,19.35,0,0,0,164,57.25q-1,8.3-1.93,15.66t-1.7,13.73a84.45,84.45,0,0,0-.79,9.53v.12c-.13.17-.26.35-.4.51-2.31,2.68-4.44,4-6.41,4-2.2,0-3.29-1.52-3.29-4.54q0-2.39,4.65-39.15A11.89,11.89,0,0,0,148.32,56a14.55,14.55,0,0,0-6.53,1.3,6.63,6.63,0,0,0-3.4,3.24L134.64,90.7c-.15,1.81-.22,3.14-.22,4q-3.75,5.56-9.42,5.56-6.12,0-6.13-6.7a16,16,0,0,1,.23-2.49l3.74-28.94a6,6,0,0,0-1.36-4.19,5,5,0,0,0-2.83-1.71,31.23,31.23,0,0,0-4.43-.22,19.35,19.35,0,0,0-6.47,1.24q-1.35,12.5-4,33.59a47.18,47.18,0,0,0-.57,5.56,13.85,13.85,0,0,0,4.43,10.67q4.42,4.08,12.59,4.08a19,19,0,0,0,15.78-7.6q3.41,7.61,13.27,7.6,6,0,11.69-4.54a16.51,16.51,0,0,0,1.39-1.25,11.27,11.27,0,0,0,1.22,1.36A17,17,0,0,0,174.12,111q-9.3,8.73-9.3,17.92c0,5,1.54,8.8,4.65,11.41a16.72,16.72,0,0,0,11.12,3.91q10.09,0,15.31-6.64t6.47-16.84l1.82-14.19q10.2,3.06,12.48,17.25,3.86-4.65,4.31-6.81Q218.36,101.17,205.12,98.78Zm-17.7,22.92q-.9,7.49-2.49,10a5.13,5.13,0,0,1-4.6,2.49,6.52,6.52,0,0,1-4.82-1.81c-1.21-1.21-1.82-3.07-1.81-5.56q.33-9.87,15.2-17.59Z" transform="translate(-3.19 -4.24)"/><path class="cls-2" d="M486.51,32.87c-.08.92-.15,1.82-.22,2.72-.16,2-.32,4-.47,6-.15,1.81-.29,3.61-.43,5.42-.49,6.1-1,12.4-1.39,18.58a1.44,1.44,0,0,1-.2.73,2.4,2.4,0,0,1-1.65.81c-1.67.28-13.59,3.41-41.12,10.8a34.12,34.12,0,0,1-6.75-8.41l0-.07a14.43,14.43,0,0,0-.78-1.39,18.29,18.29,0,0,0-4.84-5l-.87-.68c-1.7-1.38-5.82-9.56-6.67-12.23l65.43-17.23m1.1-1.33L419.93,49.37c-.17,1.35,5.08,12,7.2,13.74,1.77,1.42,3.73,2.67,5.48,5.46.4.64.65,1.13.78,1.39,1.06,2.05,3.09,5,7.36,9.06,23.14-6.21,39.67-10.6,41.57-10.92a3.46,3.46,0,0,0,2.3-1.24,2.26,2.26,0,0,0,.37-1.22c.52-8,1.19-16,1.82-24,.26-3.31.53-6.62.8-10.11Z" transform="translate(-3.19 -4.24)"/></svg>