<svg id="Layer_1" data-name="Layer 1" xmlns="http://www.w3.org/2000/svg" xmlns:xlink="http://www.w3.org/1999/xlink" viewBox="0 0 544.29 160.05"><defs><style>.cls-1{fill:#413c7c;}.cls-2{fill:url(#linear-gradient);}.cls-3{fill:#353163;}.cls-3,.cls-4{stroke:#413c7c;stroke-width:40px;}.cls-3,.cls-4,.cls-6{stroke-linecap:round;stroke-linejoin:round;}.cls-4{fill:#6058a5;}.cls-5{fill:#fff;}.cls-6{fill:#2e3191;stroke:#fff;stroke-width:29px;}.cls-7{fill:#897ffd;}</style><linearGradient id="linear-gradient" x1="388.56" y1="478.41" x2="479.12" y2="451.51" gradientUnits="userSpaceOnUse"><stop offset="0" stop-color="#413c7c"/><stop offset="1" stop-color="#897ffd"/></linearGradient></defs><title>BuyByeLogo</title><path class="cls-1" d="M486.68,431.21c-.58,5.52-1.15,10.77-1.69,16-1.33,12.68-2.72,25.36-3.9,38-.21,2.18-1.17,3.07-3.7,3.71q-35.1,8.89-70.1,18c-2.58.67-3.83.31-5.22-1.49-10.84-13.84-21.83-27.6-32.76-41.39-.51-.64-.95-1.32-1.67-2.31Z" transform="translate(22.92 -411.73)"/><polygon class="cls-1" points="323.34 152.77 544.29 156.27 323.34 159.77 323.34 152.77"/><path class="cls-2" d="M466.42,436.5c-.47,4.23-.92,8.24-1.36,12.26-1.07,9.7-2.19,19.4-3.14,29.09-.17,1.67-.93,2.35-2.93,2.85q-27.8,6.84-55.54,13.88c-2,.52-3,.24-4.13-1.13-8.57-10.57-17.26-21.08-25.9-31.61-.4-.49-.75-1-1.31-1.76Z" transform="translate(22.92 -411.73)"/><path class="cls-1" d="M411.32,517.79q36.81-9.1,73.67-18.07c5.36-1.31,6-2,6.64-7.25q4.2-32.4,8.38-64.81c1.28-9.91-.34-11.32-10.48-8.84q-59.16,14.46-118.3,29c-3.26.81-5.09.61-6.73-2.48C361.68,440,358.34,435,355.05,430c-2.92-4.49-6.26-5.65-11.6-4.37-5.93,1.44-11.85,2.94-17.79,4.34-2.61.61-4.66,1.8-4,4.6s3,3,5.58,2.32c4.94-1.27,10-2.17,14.85-3.74,4.11-1.33,6.38-.24,8.36,3.19,4.13,7.15,8.62,14.1,12.95,21.13q17.26,28.07,34.48,56.14c.76,1.25,1.56,3.22,1,4.34-2.55,5.5-2.36,10.54,1.67,14.92s9.3,4.94,15.22,3.43c13.52-3.44,27.09-6.67,40.64-10l42.46-10.39c1.09-.27,2.55-.29,3.15-1,1-1.15,2.25-3,1.94-4.1s-2.33-1.91-3.78-2.34c-.91-.27-2.16.39-3.24.66l-82,20.06c-1.21.3-2.63,1-3.6.7-2.15-.75-5-1.61-5.83-3.26s0-4.55,1.06-6.43C407.27,519,409.59,518.22,411.32,517.79Zm-38.87-59.68c-.49-.8-.92-1.63-1.59-2.83l122-29.84c-.83,6.53-1.64,12.73-2.43,18.94-1.91,15-3.88,30-5.66,45-.3,2.56-1.31,3.57-3.9,4.19q-36,8.64-71.84,17.58c-2.62.65-3.88.15-5.22-2.06C393.43,492,382.91,475.09,372.45,458.11Z" transform="translate(22.92 -411.73)"/><path class="cls-1" d="M419.25,541.28c-7.26,1.89-11.76,9-10,15.85,1.69,6.62,8.95,10.69,16,9a13.21,13.21,0,0,0,10.09-15.75C433.66,543.36,426.6,539.38,419.25,541.28Zm4.22,18a6,6,0,0,1-7.06-4.15,6.1,6.1,0,0,1,4.8-7.06,5.69,5.69,0,0,1,7,4.16A5.9,5.9,0,0,1,423.47,559.26Z" transform="translate(22.92 -411.73)"/><path class="cls-1" d="M488.13,524.44c-7.08,1.81-11.56,8.78-10,15.54s8.87,11,16.09,9.24,11.73-8.8,10-15.77S495.53,522.54,488.13,524.44Zm4.44,17.92a5.9,5.9,0,0,1-7.17-3.94,6,6,0,0,1,4.56-7.18,5.62,5.62,0,0,1,7.07,4A5.81,5.81,0,0,1,492.57,542.36Z" transform="translate(22.92 -411.73)"/><path class="cls-3" d="M37.82,447.84a25.5,25.5,0,0,0-5.45-.57,19.76,19.76,0,0,0-10.78,3q-.22,1.59-.85,6.58T19,469.91Q18,478,17.39,482.79q-20.31,9.42-20.31,22.8A12.57,12.57,0,0,0,.72,514.9q3.62,3.63,10.66,3.63a17.07,17.07,0,0,0,12.25-5q5.22-5.06,7-17.19ZM15.13,499.46q-.69,4.55-2.44,6.64c-1.18,1.4-2.29,2.1-3.35,2.1q-3.86,0-3.86-4.08,0-5.67,10.67-11.69Z" transform="translate(22.92 -411.73)"/><path class="cls-3" d="M67,480.4a29.44,29.44,0,0,0-16.74-6.35,18.75,18.75,0,0,0,13.16-5.67A17.36,17.36,0,0,0,69,456a20.12,20.12,0,0,0-4.25-12.65,26.87,26.87,0,0,0-6.47-5.79,35.17,35.17,0,0,0-10.44-4.14,61.72,61.72,0,0,0-14.86-1.64q-15.66,0-25.19,7.09t-9.53,17.87a14.29,14.29,0,0,0,4.65,10.55q4.65,4.54,13.28,4.88l1.24-8.4a12,12,0,0,1-6.58-2.55A6.5,6.5,0,0,1,8.32,456q0-6.36,7-10.16a30,30,0,0,1,14.41-3.8q11.23,0,17.7,4.65,6,4.43,5.85,10.9t-4.88,9.7a19.91,19.91,0,0,1-11.52,3.23l-1,8.4q9.87,0,15.6,4.42t5.73,10.9A13.52,13.52,0,0,1,53,504.63a15.25,15.25,0,0,1-10.83,3.91,24.72,24.72,0,0,1-11.63-2.61L27,515.46q4.53,3.3,17.08,3.29t21.27-6.35q8.73-6.36,8.74-17.7A17.61,17.61,0,0,0,67,480.4Z" transform="translate(22.92 -411.73)"/><path class="cls-3" d="M179,506.27l5.34-41.87a22.52,22.52,0,0,0-6.58-.9,15.53,15.53,0,0,0-5.28,1.24,7.32,7.32,0,0,0-4.25,3.41q-.91,6.92-2.27,19.34t-1.71,15q-3.51,5.22-9.07,5.22-6.13,0-6.13-6.7a24.85,24.85,0,0,1,.23-2.49L153,469.62a5.94,5.94,0,0,0-1.36-4.19,5,5,0,0,0-2.84-1.71,32,32,0,0,0-4.42-.22,19.48,19.48,0,0,0-6.47,1.24q-1,8.29-1.93,15.66t-1.7,13.73a84.11,84.11,0,0,0-.79,9.53v.12c-.13.17-.26.35-.4.51-2.31,2.68-4.44,4-6.41,4-2.2,0-3.29-1.52-3.29-4.54q0-2.38,4.65-39.15a11.89,11.89,0,0,0-5.84-1.13,14.55,14.55,0,0,0-6.53,1.3,6.62,6.62,0,0,0-3.4,3.24l-3.75,30.18c-.15,1.81-.22,3.14-.22,4q-3.75,5.56-9.42,5.56-6.12,0-6.13-6.7a15.36,15.36,0,0,1,.23-2.49l3.74-28.94a5.94,5.94,0,0,0-1.36-4.19,5,5,0,0,0-2.83-1.71,32.2,32.2,0,0,0-4.43-.22,19.52,19.52,0,0,0-6.47,1.24q-1.35,12.5-4,33.59a46,46,0,0,0-.57,5.56,13.86,13.86,0,0,0,4.43,10.67q4.43,4.08,12.59,4.08a19,19,0,0,0,15.78-7.6q3.41,7.6,13.27,7.6,6,0,11.69-4.54a16.17,16.17,0,0,0,1.39-1.25,11.19,11.19,0,0,0,1.22,1.36A17,17,0,0,0,148,518.53q-9.3,8.73-9.3,17.92c0,5,1.54,8.8,4.65,11.41a16.71,16.71,0,0,0,11.12,3.91q10.09,0,15.31-6.64t6.47-16.84l1.82-14.19q10.2,3.06,12.48,17.25,3.86-4.65,4.31-6.81Q192.24,508.66,179,506.27Zm-17.7,22.92q-.9,7.48-2.49,10a5.13,5.13,0,0,1-4.6,2.49,6.52,6.52,0,0,1-4.82-1.81q-1.82-1.82-1.81-5.56.33-9.87,15.2-17.59Z" transform="translate(22.92 -411.73)"/><path class="cls-4" d="M271.1,480.4a29.44,29.44,0,0,0-16.74-6.35,18.75,18.75,0,0,0,13.16-5.67A17.36,17.36,0,0,0,273,456a20.13,20.13,0,0,0-4.26-12.65,26.87,26.87,0,0,0-6.47-5.79,35.17,35.17,0,0,0-10.44-4.14A61.72,61.72,0,0,0,237,431.73q-15.66,0-25.19,7.09t-9.53,17.87a14.29,14.29,0,0,0,4.65,10.55q4.65,4.54,13.28,4.88l1.25-8.4a12,12,0,0,1-6.58-2.55,6.48,6.48,0,0,1-2.5-5.16q0-6.36,7-10.16a30,30,0,0,1,14.41-3.8q11.24,0,17.7,4.65,6,4.43,5.85,10.9t-4.88,9.7A19.91,19.91,0,0,1,241,470.53l-1,8.4q9.87,0,15.6,4.42t5.73,10.9a13.52,13.52,0,0,1-4.2,10.38,15.25,15.25,0,0,1-10.83,3.91,24.75,24.75,0,0,1-11.63-2.61l-3.52,9.53q4.54,3.3,17.08,3.29t21.27-6.35q8.74-6.34,8.74-17.7A17.61,17.61,0,0,0,271.1,480.4Z" transform="translate(22.92 -411.73)"/><path class="cls-4" d="M241.88,447.84a25.5,25.5,0,0,0-5.45-.57,19.79,19.79,0,0,0-10.78,3q-.22,1.59-.85,6.58t-1.7,13.11Q222,478,221.46,482.79q-20.31,9.42-20.31,22.8a12.56,12.56,0,0,0,3.63,9.31q3.63,3.63,10.66,3.63a17.09,17.09,0,0,0,12.26-5q5.22-5.06,7-17.19Zm-22.69,51.62q-.69,4.55-2.44,6.64c-1.18,1.4-2.29,2.1-3.35,2.1q-3.85,0-3.86-4.08,0-5.67,10.67-11.69Z" transform="translate(22.92 -411.73)"/><path class="cls-4" d="M325.5,506.27l5.33-41.87a22.47,22.47,0,0,0-6.58-.9,15.25,15.25,0,0,0-5.27,1.25,7.26,7.26,0,0,0-4.26,3.4q-.9,6.92-2.27,19.35t-1.7,15q-3.51,5.22-9.08,5.22-6.12,0-6.12-6.7a23.91,23.91,0,0,1,.22-2.49l3.75-28.94a6,6,0,0,0-1.36-4.19,5,5,0,0,0-2.84-1.71,32,32,0,0,0-4.42-.22,19.26,19.26,0,0,0-6.47,1.25q-1,8.28-1.93,15.65t-1.7,13.73a84.67,84.67,0,0,0-.8,9.53q0,6.81,4,10.56a17.05,17.05,0,0,0,10.56,4.31q-9.31,8.73-9.31,17.93,0,7.49,4.65,11.4A16.71,16.71,0,0,0,301,551.77q10.1,0,15.32-6.64t6.47-16.84l1.81-14.19q10.21,3.06,12.49,17.25c2.57-3.1,4-5.37,4.31-6.81Q338.78,508.66,325.5,506.27Zm-17.7,22.92c-.61,5-1.44,8.32-2.5,10a5.12,5.12,0,0,1-4.59,2.49,6.5,6.5,0,0,1-4.82-1.81q-1.81-1.82-1.82-5.56.35-9.87,15.21-17.59Z" transform="translate(22.92 -411.73)"/><path class="cls-4" d="M394.26,487.21a44,44,0,0,1-12.71,15.43q-7.83,5.91-16.34,5.9a13,13,0,0,1-9.7-4q-3.92-4-3.91-12.25a24.68,24.68,0,0,1,4-14.18q4-6,9.36-6a8,8,0,0,1,4.59,1.42c1.4.95,2.1,2.72,2.1,5.33s-1.15,5.32-3.46,8.11-5.81,4.69-10.49,5.68l1.58,6.69q12.15-2.14,19.12-7.6a17.17,17.17,0,0,0,7-14.18,12.2,12.2,0,0,0-5.56-10.27q-5.44-3.81-14.18-3.8a28.82,28.82,0,0,0-21.05,8.73q-8.79,8.75-8.79,20.43t7,19.17q6.58,6.93,17.93,6.92a37.39,37.39,0,0,0,13.44-2.49,39.51,39.51,0,0,0,11.29-6.47q9.54-8.18,13.28-16.68A26.66,26.66,0,0,0,394.26,487.21Z" transform="translate(22.92 -411.73)"/><polyline class="cls-5" points="300.27 93.98 305.31 39.75 199.33 67.83 226.09 119.05 296.46 100.19"/><path class="cls-6" d="M37.82,447.84a25.5,25.5,0,0,0-5.45-.57,19.76,19.76,0,0,0-10.78,3q-.22,1.59-.85,6.58T19,469.91Q18,478,17.39,482.79q-20.31,9.42-20.31,22.8A12.57,12.57,0,0,0,.72,514.9q3.62,3.63,10.66,3.63a17.07,17.07,0,0,0,12.25-5q5.22-5.06,7-17.19ZM15.13,499.46q-.69,4.55-2.44,6.64c-1.18,1.4-2.29,2.1-3.35,2.1q-3.86,0-3.86-4.08,0-5.67,10.67-11.69Z" transform="translate(22.92 -411.73)"/><path class="cls-6" d="M67,480.4a29.44,29.44,0,0,0-16.74-6.35,18.75,18.75,0,0,0,13.16-5.67A17.36,17.36,0,0,0,69,456a20.12,20.12,0,0,0-4.25-12.65,26.87,26.87,0,0,0-6.47-5.79,35.17,35.17,0,0,0-10.44-4.14,61.72,61.72,0,0,0-14.86-1.64q-15.66,0-25.19,7.09t-9.53,17.87a14.29,14.29,0,0,0,4.65,10.55q4.65,4.54,13.28,4.88l1.24-8.4a12,12,0,0,1-6.58-2.55A6.5,6.5,0,0,1,8.32,456q0-6.36,7-10.16a30,30,0,0,1,14.41-3.8q11.23,0,17.7,4.65,6,4.43,5.85,10.9t-4.88,9.7a19.91,19.91,0,0,1-11.52,3.23l-1,8.4q9.87,0,15.6,4.42t5.73,10.9A13.52,13.52,0,0,1,53,504.63a15.25,15.25,0,0,1-10.83,3.91,24.72,24.72,0,0,1-11.63-2.61L27,515.46q4.53,3.3,17.08,3.29t21.27-6.35q8.73-6.36,8.74-17.7A17.61,17.61,0,0,0,67,480.4Z" transform="translate(22.92 -411.73)"/><path class="cls-6" d="M179,506.27l5.34-41.87a22.52,22.52,0,0,0-6.58-.9,15.53,15.53,0,0,0-5.28,1.24,7.32,7.32,0,0,0-4.25,3.41q-.91,6.92-2.27,19.34t-1.71,15q-3.51,5.22-9.07,5.22-6.13,0-6.13-6.7a24.85,24.85,0,0,1,.23-2.49L153,469.62a5.94,5.94,0,0,0-1.36-4.19,5,5,0,0,0-2.84-1.71,32,32,0,0,0-4.42-.22,19.48,19.48,0,0,0-6.47,1.24q-1,8.29-1.93,15.66t-1.7,13.73a84.11,84.11,0,0,0-.79,9.53v.12c-.13.17-.26.35-.4.51-2.31,2.68-4.44,4-6.41,4-2.2,0-3.29-1.52-3.29-4.54q0-2.38,4.65-39.15a11.89,11.89,0,0,0-5.84-1.13,14.55,14.55,0,0,0-6.53,1.3,6.62,6.62,0,0,0-3.4,3.24l-3.75,30.18c-.15,1.81-.22,3.14-.22,4q-3.75,5.56-9.42,5.56-6.12,0-6.13-6.7a15.36,15.36,0,0,1,.23-2.49l3.74-28.94a5.94,5.94,0,0,0-1.36-4.19,5,5,0,0,0-2.83-1.71,32.2,32.2,0,0,0-4.43-.22,19.52,19.52,0,0,0-6.47,1.24q-1.35,12.5-4,33.59a46,46,0,0,0-.57,5.56,13.86,13.86,0,0,0,4.43,10.67q4.43,4.08,12.59,4.08a19,19,0,0,0,15.78-7.6q3.41,7.6,13.27,7.6,6,0,11.69-4.54a16.17,16.17,0,0,0,1.39-1.25,11.19,11.19,0,0,0,1.22,1.36A17,17,0,0,0,148,518.53q-9.3,8.73-9.3,17.92c0,5,1.54,8.8,4.65,11.41a16.71,16.71,0,0,0,11.12,3.91q10.09,0,15.31-6.64t6.47-16.84l1.82-14.19q10.2,3.06,12.48,17.25,3.86-4.65,4.31-6.81Q192.24,508.66,179,506.27Zm-17.7,22.92q-.9,7.48-2.49,10a5.13,5.13,0,0,1-4.6,2.49,6.52,6.52,0,0,1-4.82-1.81q-1.82-1.82-1.81-5.56.33-9.87,15.2-17.59Z" transform="translate(22.92 -411.73)"/><path class="cls-6" d="M271.1,480.4a29.44,29.44,0,0,0-16.74-6.35,18.75,18.75,0,0,0,13.16-5.67A17.36,17.36,0,0,0,273,456a20.13,20.13,0,0,0-4.26-12.65,26.87,26.87,0,0,0-6.47-5.79,35.17,35.17,0,0,0-10.44-4.14A61.72,61.72,0,0,0,237,431.73q-15.66,0-25.19,7.09t-9.53,17.87a14.29,14.29,0,0,0,4.65,10.55q4.65,4.54,13.28,4.88l1.25-8.4a12,12,0,0,1-6.58-2.55,6.48,6.48,0,0,1-2.5-5.16q0-6.36,7-10.16a30,30,0,0,1,14.41-3.8q11.24,0,17.7,4.65,6,4.43,5.85,10.9t-4.88,9.7A19.91,19.91,0,0,1,241,470.53l-1,8.4q9.87,0,15.6,4.42t5.73,10.9a13.52,13.52,0,0,1-4.2,10.38,15.25,15.25,0,0,1-10.83,3.91,24.75,24.75,0,0,1-11.63-2.61l-3.52,9.53q4.54,3.3,17.08,3.29t21.27-6.35q8.74-6.34,8.74-17.7A17.61,17.61,0,0,0,271.1,480.4Z" transform="translate(22.92 -411.73)"/><path class="cls-6" d="M241.88,447.84a25.5,25.5,0,0,0-5.45-.57,19.79,19.79,0,0,0-10.78,3q-.22,1.59-.85,6.58t-1.7,13.11Q222,478,221.46,482.79q-20.31,9.42-20.31,22.8a12.56,12.56,0,0,0,3.63,9.31q3.63,3.63,10.66,3.63a17.09,17.09,0,0,0,12.26-5q5.22-5.06,7-17.19Zm-22.69,51.62q-.69,4.55-2.44,6.64c-1.18,1.4-2.29,2.1-3.35,2.1q-3.85,0-3.86-4.08,0-5.67,10.67-11.69Z" transform="translate(22.92 -411.73)"/><path class="cls-6" d="M325.5,506.27l5.33-41.87a22.47,22.47,0,0,0-6.58-.9,15.25,15.25,0,0,0-5.27,1.25,7.26,7.26,0,0,0-4.26,3.4q-.9,6.92-2.27,19.35t-1.7,15q-3.51,5.22-9.08,5.22-6.12,0-6.12-6.7a23.91,23.91,0,0,1,.22-2.49l3.75-28.94a6,6,0,0,0-1.36-4.19,5,5,0,0,0-2.84-1.71,32,32,0,0,0-4.42-.22,19.26,19.26,0,0,0-6.47,1.25q-1,8.28-1.93,15.65t-1.7,13.73a84.67,84.67,0,0,0-.8,9.53q0,6.81,4,10.56a17.05,17.05,0,0,0,10.56,4.31q-9.31,8.73-9.31,17.93,0,7.49,4.65,11.4A16.71,16.71,0,0,0,301,551.77q10.1,0,15.32-6.64t6.47-16.84l1.81-14.19q10.21,3.06,12.49,17.25c2.57-3.1,4-5.37,4.31-6.81Q338.78,508.66,325.5,506.27Zm-17.7,22.92c-.61,5-1.44,8.32-2.5,10a5.12,5.12,0,0,1-4.59,2.49,6.5,6.5,0,0,1-4.82-1.81q-1.81-1.82-1.82-5.56.35-9.87,15.21-17.59Z" transform="translate(22.92 -411.73)"/><path class="cls-6" d="M394.26,487.21a44,44,0,0,1-12.71,15.43q-7.83,5.91-16.34,5.9a13,13,0,0,1-9.7-4q-3.92-4-3.91-12.25a24.68,24.68,0,0,1,4-14.18q4-6,9.36-6a8,8,0,0,1,4.59,1.42c1.4.95,2.1,2.72,2.1,5.33s-1.15,5.32-3.46,8.11-5.81,4.69-10.49,5.68l1.58,6.69q12.15-2.14,19.12-7.6a17.17,17.17,0,0,0,7-14.18,12.2,12.2,0,0,0-5.56-10.27q-5.44-3.81-14.18-3.8a28.82,28.82,0,0,0-21.05,8.73q-8.79,8.75-8.79,20.43t7,19.17q6.58,6.93,17.93,6.92a37.39,37.39,0,0,0,13.44-2.49,39.51,39.51,0,0,0,11.29-6.47q9.54-8.18,13.28-16.68A26.66,26.66,0,0,0,394.26,487.21Z" transform="translate(22.92 -411.73)"/><path class="cls-7" d="M37.82,447.84a25.5,25.5,0,0,0-5.45-.57,19.76,19.76,0,0,0-10.78,3q-.22,1.59-.85,6.58T19,469.91Q18,478,17.39,482.79q-20.31,9.42-20.31,22.8A12.57,12.57,0,0,0,.72,514.9q3.62,3.63,10.66,3.63a17.07,17.07,0,0,0,12.25-5q5.22-5.06,7-17.19ZM15.13,499.46q-.69,4.55-2.44,6.64c-1.18,1.4-2.29,2.1-3.35,2.1q-3.86,0-3.86-4.08,0-5.67,10.67-11.69Z" transform="translate(22.92 -411.73)"/><path class="cls-7" d="M67,480.4a29.44,29.44,0,0,0-16.74-6.35,18.75,18.75,0,0,0,13.16-5.67A17.36,17.36,0,0,0,69,456a20.12,20.12,0,0,0-4.25-12.65,26.87,26.87,0,0,0-6.47-5.79,35.17,35.17,0,0,0-10.44-4.14,61.72,61.72,0,0,0-14.86-1.64q-15.66,0-25.19,7.09t-9.53,17.87a14.29,14.29,0,0,0,4.65,10.55q4.65,4.54,13.28,4.88l1.24-8.4a12,12,0,0,1-6.58-2.55A6.5,6.5,0,0,1,8.32,456q0-6.36,7-10.16a30,30,0,0,1,14.41-3.8q11.23,0,17.7,4.65,6,4.43,5.85,10.9t-4.88,9.7a19.91,19.91,0,0,1-11.52,3.23l-1,8.4q9.87,0,15.6,4.42t5.73,10.9A13.52,13.52,0,0,1,53,504.63a15.25,15.25,0,0,1-10.83,3.91,24.72,24.72,0,0,1-11.63-2.61L27,515.46q4.53,3.3,17.08,3.29t21.27-6.35q8.73-6.36,8.74-17.7A17.61,17.61,0,0,0,67,480.4Z" transform="translate(22.92 -411.73)"/><path class="cls-7" d="M179,506.27l5.34-41.87a22.52,22.52,0,0,0-6.58-.9,15.53,15.53,0,0,0-5.28,1.24,7.32,7.32,0,0,0-4.25,3.41q-.91,6.92-2.27,19.34t-1.71,15q-3.51,5.22-9.07,5.22-6.13,0-6.13-6.7a24.85,24.85,0,0,1,.23-2.49L153,469.62a5.94,5.94,0,0,0-1.36-4.19,5,5,0,0,0-2.84-1.71,32,32,0,0,0-4.42-.22,19.48,19.48,0,0,0-6.47,1.24q-1,8.29-1.93,15.66t-1.7,13.73a84.11,84.11,0,0,0-.79,9.53v.12c-.13.17-.26.35-.4.51-2.31,2.68-4.44,4-6.41,4-2.2,0-3.29-1.52-3.29-4.54q0-2.38,4.65-39.15a11.89,11.89,0,0,0-5.84-1.13,14.55,14.55,0,0,0-6.53,1.3,6.62,6.62,0,0,0-3.4,3.24l-3.75,30.18c-.15,1.81-.22,3.14-.22,4q-3.75,5.56-9.42,5.56-6.12,0-6.13-6.7a15.36,15.36,0,0,1,.23-2.49l3.74-28.94a5.94,5.94,0,0,0-1.36-4.19,5,5,0,0,0-2.83-1.71,32.2,32.2,0,0,0-4.43-.22,19.52,19.52,0,0,0-6.47,1.24q-1.35,12.5-4,33.59a46,46,0,0,0-.57,5.56,13.86,13.86,0,0,0,4.43,10.67q4.43,4.08,12.59,4.08a19,19,0,0,0,15.78-7.6q3.41,7.6,13.27,7.6,6,0,11.69-4.54a16.17,16.17,0,0,0,1.39-1.25,11.19,11.19,0,0,0,1.22,1.36A17,17,0,0,0,148,518.53q-9.3,8.73-9.3,17.92c0,5,1.54,8.8,4.65,11.41a16.71,16.71,0,0,0,11.12,3.91q10.09,0,15.31-6.64t6.47-16.84l1.82-14.19q10.2,3.06,12.48,17.25,3.86-4.65,4.31-6.81Q192.24,508.66,179,506.27Zm-17.7,22.92q-.9,7.48-2.49,10a5.13,5.13,0,0,1-4.6,2.49,6.52,6.52,0,0,1-4.82-1.81q-1.82-1.82-1.81-5.56.33-9.87,15.2-17.59Z" transform="translate(22.92 -411.73)"/><path class="cls-1" d="M271.1,480.4a29.44,29.44,0,0,0-16.74-6.35,18.75,18.75,0,0,0,13.16-5.67A17.36,17.36,0,0,0,273,456a20.13,20.13,0,0,0-4.26-12.65,26.87,26.87,0,0,0-6.47-5.79,35.17,35.17,0,0,0-10.44-4.14A61.72,61.72,0,0,0,237,431.73q-15.66,0-25.19,7.09t-9.53,17.87a14.29,14.29,0,0,0,4.65,10.55q4.65,4.54,13.28,4.88l1.25-8.4a12,12,0,0,1-6.58-2.55,6.48,6.48,0,0,1-2.5-5.16q0-6.36,7-10.16a30,30,0,0,1,14.41-3.8q11.24,0,17.7,4.65,6,4.43,5.85,10.9t-4.88,9.7A19.91,19.91,0,0,1,241,470.53l-1,8.4q9.87,0,15.6,4.42t5.73,10.9a13.52,13.52,0,0,1-4.2,10.38,15.25,15.25,0,0,1-10.83,3.91,24.75,24.75,0,0,1-11.63-2.61l-3.52,9.53q4.54,3.3,17.08,3.29t21.27-6.35q8.74-6.34,8.74-17.7A17.61,17.61,0,0,0,271.1,480.4Z" transform="translate(22.92 -411.73)"/><path class="cls-1" d="M241.88,447.84a25.5,25.5,0,0,0-5.45-.57,19.79,19.79,0,0,0-10.78,3q-.22,1.59-.85,6.58t-1.7,13.11Q222,478,221.46,482.79q-20.31,9.42-20.31,22.8a12.56,12.56,0,0,0,3.63,9.31q3.63,3.63,10.66,3.63a17.09,17.09,0,0,0,12.26-5q5.22-5.06,7-17.19Zm-22.69,51.62q-.69,4.55-2.44,6.64c-1.18,1.4-2.29,2.1-3.35,2.1q-3.85,0-3.86-4.08,0-5.67,10.67-11.69Z" transform="translate(22.92 -411.73)"/><path class="cls-1" d="M325.5,506.27l5.33-41.87a22.47,22.47,0,0,0-6.58-.9,15.25,15.25,0,0,0-5.27,1.25,7.26,7.26,0,0,0-4.26,3.4q-.9,6.92-2.27,19.35t-1.7,15q-3.51,5.22-9.08,5.22-6.12,0-6.12-6.7a23.91,23.91,0,0,1,.22-2.49l3.75-28.94a6,6,0,0,0-1.36-4.19,5,5,0,0,0-2.84-1.71,32,32,0,0,0-4.42-.22,19.26,19.26,0,0,0-6.47,1.25q-1,8.28-1.93,15.65t-1.7,13.73a84.67,84.67,0,0,0-.8,9.53q0,6.81,4,10.56a17.05,17.05,0,0,0,10.56,4.31q-9.31,8.73-9.31,17.93,0,7.49,4.65,11.4A16.71,16.71,0,0,0,301,551.77q10.1,0,15.32-6.64t6.47-16.84l1.81-14.19q10.21,3.06,12.49,17.25c2.57-3.1,4-5.37,4.31-6.81Q338.78,508.66,325.5,506.27Zm-17.7,22.92c-.61,5-1.44,8.32-2.5,10a5.12,5.12,0,0,1-4.59,2.49,6.5,6.5,0,0,1-4.82-1.81q-1.81-1.82-1.82-5.56.35-9.87,15.21-17.59Z" transform="translate(22.92 -411.73)"/><path class="cls-1" d="M394.26,487.21a44,44,0,0,1-12.71,15.43q-7.83,5.91-16.34,5.9a13,13,0,0,1-9.7-4q-3.92-4-3.91-12.25a24.68,24.68,0,0,1,4-14.18q4-6,9.36-6a8,8,0,0,1,4.59,1.42c1.4.95,2.1,2.72,2.1,5.33s-1.15,5.32-3.46,8.11-5.81,4.69-10.49,5.68l1.58,6.69q12.15-2.14,19.12-7.6a17.17,17.17,0,0,0,7-14.18,12.2,12.2,0,0,0-5.56-10.27q-5.44-3.81-14.18-3.8a28.82,28.82,0,0,0-21.05,8.73q-8.79,8.75-8.79,20.43t7,19.17q6.58,6.93,17.93,6.92a37.39,37.39,0,0,0,13.44-2.49,39.51,39.51,0,0,0,11.29-6.47q9.54-8.18,13.28-16.68A26.66,26.66,0,0,0,394.26,487.21Z" transform="translate(22.92 -411.73)"/></svg>