<svg id="Layer_1" data-name="Layer 1" xmlns="http://www.w3.org/2000/svg" xmlns:xlink="http://www.w3.org/1999/xlink" viewBox="0 0 250.56 250.56"><defs><style>.cls-1,.cls-2,.cls-3{fill:#fff;}.cls-1,.cls-3{stroke:#fff;}.cls-1{stroke-linecap:round;stroke-linejoin:round;stroke-width:4px;}.cls-3{stroke-miterlimit:10;stroke-width:7px;}.cls-4{fill:#413c7c;}.cls-5{fill:url(#linear-gradient);}</style><linearGradient id="linear-gradient" x1="679.43" y1="44.81" x2="774.42" y2="73.03" gradientTransform="matrix(1, 0, 0, -1, 26.12, 434.62)" gradientUnits="userSpaceOnUse"><stop offset="0" stop-color="#413c7c"/><stop offset="1" stop-color="#897ffd"/></linearGradient></defs><title>TabIcon</title><path class="cls-1" d="M788.46,491" transform="translate(-618.13 -265.46)"/><circle class="cls-2" cx="125.28" cy="125.28" r="125.28"/><path class="cls-3" d="M810.3,437.32c-7.43,1.89-12.12,9.21-10.49,16.3s9.29,11.54,16.88,9.69a13.82,13.82,0,0,0,10.49-16.54C825.37,439.46,818.06,435.32,810.3,437.32ZM815,456.1a6.19,6.19,0,0,1-7.52-4.12,6.31,6.31,0,0,1,4.76-7.53h0a5.91,5.91,0,0,1,7.37,3.93,1.46,1.46,0,0,1,0,.2A6.08,6.08,0,0,1,815.3,456l-.35.08Z" transform="translate(-618.13 -265.46)"/><path class="cls-4" d="M808.47,340.3c-.61,5.79-1.2,11.29-1.77,16.78-1.4,13.3-2.85,26.6-4.09,39.86-.22,2.29-1.23,3.22-3.88,3.89q-36.83,9.33-73.54,18.88c-2.7.71-4,.33-5.47-1.56-11.37-14.52-22.9-28.95-34.37-43.42-.53-.67-1-1.38-1.75-2.42Z" transform="translate(-618.13 -265.46)"/><path class="cls-5" d="M787.22,345.84c-.49,4.44-1,8.65-1.43,12.87-1.12,10.17-2.29,20.35-3.29,30.51-.18,1.75-1,2.46-3.07,3q-29.17,7.17-58.26,14.56c-2.1.54-3.15.25-4.34-1.19-9-11.08-18.1-22.11-27.16-33.15-.42-.52-.79-1.05-1.38-1.85Z" transform="translate(-618.13 -265.46)"/><path class="cls-4" d="M729.42,431.12q38.61-9.56,77.28-19c5.62-1.37,6.29-2.1,7-7.6q4.41-34,8.79-68c1.35-10.39-.35-11.87-11-9.27q-62.06,15.17-124.09,30.42c-3.42.85-5.34.64-7.06-2.6-3-5.6-6.46-10.85-9.91-16.09-3.07-4.71-6.57-5.93-12.17-4.59C652,336,645.8,337.53,639.57,339c-2.74.64-4.89,1.89-4.2,4.83s3.15,3.15,5.85,2.43c5.19-1.33,10.49-2.27,15.58-3.92,4.31-1.39,6.69-.25,8.77,3.35,4.33,7.5,9,14.79,13.58,22.16q18.11,29.45,36.17,58.89c.8,1.31,1.64,3.38,1,4.55-2.67,5.77-2.47,11.06,1.75,15.65s9.76,5.19,16,3.6c14.18-3.61,28.42-7,42.63-10.49l44.54-10.9c1.14-.28,2.67-.3,3.3-1.05,1.05-1.2,2.36-3.14,2-4.3s-2.45-2-4-2.45c-1-.28-2.26.41-3.4.69l-86,21c-1.27.32-2.76,1.05-3.78.74-2.25-.79-5.24-1.69-6.11-3.42s0-4.77,1.11-6.75C725.17,432.39,727.61,431.57,729.42,431.12Zm-40.77-62.61c-.52-.84-1-1.71-1.67-3l128-31.3c-.87,6.85-1.72,13.36-2.54,19.87-2,15.74-4.07,31.47-5.94,47.2-.32,2.69-1.38,3.75-4.09,4.4q-37.77,9.06-75.36,18.44c-2.75.68-4.07.16-5.48-2.16C710.65,404.06,699.62,386.32,688.65,368.51Z" transform="translate(-618.13 -265.46)"/><path class="cls-4" d="M737.74,455.76c-7.62,2-12.34,9.44-10.49,16.62,1.77,6.95,9.39,11.22,16.78,9.44a13.84,13.84,0,0,0,10.59-16.48v0C752.86,457.94,745.45,453.76,737.74,455.76Zm4.43,18.88a6.3,6.3,0,0,1-7.41-4.36,6.39,6.39,0,0,1,5-7.4,6,6,0,0,1,7.3,4.22,1,1,0,0,1,0,.14,6.19,6.19,0,0,1-4.78,7.34l-.19,0Z" transform="translate(-618.13 -265.46)"/><path class="cls-4" d="M810,438.09c-7.42,1.9-12.12,9.21-10.49,16.3s9.31,11.54,16.88,9.7,12.31-9.24,10.49-16.55S817.76,436.1,810,438.09Zm4.66,18.8a6.19,6.19,0,0,1-7.52-4.13,6.3,6.3,0,0,1,4.75-7.53h0a5.9,5.9,0,0,1,7.35,3.95l.07.25a6.1,6.1,0,0,1-4.41,7.41Z" transform="translate(-618.13 -265.46)"/></svg>